<svg xmlns="http://www.w3.org/2000/svg" viewBox="0 0 404 372" width="404" height="372" role="img" aria-label="Line drawing of a brain wearing a headband, skipping rope">
  <!-- dashed ground line, fades while airborne -->
  <path d="M140 316 L 264 316" fill="none" stroke="#8b949e" stroke-width="4" stroke-linecap="round" stroke-dasharray="4 10">
    <animate attributeName="opacity" values="1;1;0.3;1;1" keyTimes="0;0.30;0.50;0.70;1" dur="0.9s" repeatCount="indefinite"/>
  </path>

  <!-- character + rope bounce together -->
  <g>
    <animateTransform attributeName="transform" type="translate"
      values="0 0; 0 0; 0 -30; 0 0; 0 0"
      keyTimes="0;0.30;0.50;0.70;1"
      calcMode="spline"
      keySplines="0.4 0 0.6 1; 0.2 0 0.4 1; 0.6 0 0.8 1; 0.4 0 0.6 1"
      dur="0.9s" repeatCount="indefinite"/>

    <!-- animated rope, anchored to the fists -->
    <path d="M76 166 C 100 -12, 316 -12, 340 167" fill="none" stroke="#8b949e" stroke-width="5" stroke-linecap="round">
      <animate attributeName="d" dur="0.9s" repeatCount="indefinite"
        calcMode="spline" keySplines="0.4 0 0.6 1; 0.4 0 0.6 1; 0.4 0 0.6 1; 0.4 0 0.6 1"
        keyTimes="0;0.25;0.50;0.75;1"
        values="M76 166 C 100 -12, 316 -12, 340 167;
                M76 166 C 64 174, 352 174, 340 167;
                M76 166 C 100 400, 316 400, 340 167;
                M76 166 C 64 174, 352 174, 340 167;
                M76 166 C 100 -12, 316 -12, 340 167"/>
    </path>

    <!-- the character: vector-traced from the original artwork -->
    <g transform="translate(0.000000,340.000000) scale(0.100000,-0.100000)" fill="#8b949e" stroke="none">
      <path d="M2705 2775 c22 -15 55 -41 72 -58 51 -48 52 -22 2 28 -29 29 -57 47
-80 51 l-34 6 40 -27z"/>
      <path d="M1127 2483 c-20 -23 -33 -73 -19 -73 6 0 22 20 35 45 26 46 16 63
-16 28z"/>
      <path d="M2005 2464 c-27 -9 -84 -16 -125 -17 -60 -2 -85 -8 -127 -30 -41 -21
-67 -27 -113 -27 -33 0 -68 -4 -78 -9 -9 -5 -30 -15 -46 -22 -36 -17 -106 -81
-106 -97 0 -7 -4 -12 -9 -12 -5 0 -11 -9 -14 -20 -3 -11 -18 -24 -34 -30 -15
-5 -37 -15 -48 -22 -11 -6 -33 -18 -50 -26 -46 -22 -85 -62 -109 -112 -13 -25
-34 -65 -48 -90 -76 -134 -78 -142 -53 -190 19 -37 20 -214 1 -203 -4 3 -5
-18 -1 -46 l7 -51 -41 0 c-79 0 -171 71 -171 132 0 27 -4 38 -15 38 -8 0 -15
-4 -15 -10 0 -5 5 -10 10 -10 14 0 12 -32 -3 -50 -19 -24 -68 -43 -81 -30 -5
5 -18 10 -28 10 -28 0 -21 30 15 68 29 30 30 34 15 43 -19 11 -25 39 -8 39 6
0 10 5 10 10 0 6 -7 10 -15 10 -8 0 -15 -9 -15 -20 0 -10 -8 -24 -17 -29 -10
-6 -12 -11 -5 -11 23 0 13 -39 -12 -46 -41 -10 -88 31 -57 50 10 7 2 56 -10
56 -5 0 -9 -40 -9 -89 0 -80 2 -90 20 -96 10 -3 28 -1 40 5 15 8 27 7 49 -5
17 -8 36 -15 44 -15 8 0 22 -9 32 -20 54 -60 170 -113 238 -110 64 4 66 3 72
-37 17 -102 107 -213 172 -213 12 0 28 -8 35 -18 24 -33 76 -62 111 -62 25 0
41 -7 58 -28 27 -30 61 -52 83 -52 31 0 30 -136 -2 -172 -13 -16 -13 -18 2
-24 25 -9 28 -2 36 82 7 73 20 99 45 90 20 -6 3 -251 -20 -282 -23 -32 -47 0
-39 53 7 49 -1 54 -33 17 -24 -28 -21 -47 11 -74 22 -17 20 -30 -3 -30 -11 0
-27 10 -35 22 -23 33 -29 18 -30 -91 -1 -92 1 -101 23 -125 20 -21 34 -26 73
-26 26 0 48 5 48 10 0 6 -10 10 -22 10 -22 1 -22 1 -3 12 11 6 24 18 29 26 8
13 11 13 22 -3 13 -18 14 -18 14 3 0 12 5 22 10 22 6 0 10 24 10 54 0 30 5 58
10 61 6 3 10 18 10 32 0 25 -1 25 -18 10 -10 -10 -23 -17 -29 -17 -6 0 -13 -6
-16 -12 -3 -9 -7 -6 -12 6 -6 13 -3 23 11 33 57 40 57 41 28 67 -31 26 -25 51
9 40 21 -6 21 -6 5 13 -12 13 -18 36 -18 71 0 78 10 95 70 114 50 16 53 16 90
-3 73 -38 254 -48 315 -16 11 5 65 11 120 12 55 1 111 4 125 6 24 4 25 2 34
-73 7 -65 6 -82 -8 -103 -16 -24 -16 -25 4 -25 25 0 25 -10 0 -38 -24 -25 -26
-42 -5 -42 8 0 15 -4 15 -8 0 -5 9 -18 20 -30 12 -12 16 -23 10 -27 -6 -3 -10
-1 -10 4 0 6 -9 11 -19 11 -11 0 -23 5 -26 10 -3 6 -10 10 -15 10 -9 0 -1 -71
9 -80 3 -3 6 -13 7 -22 4 -87 3 -83 19 -62 12 16 14 16 15 3 0 -9 16 -24 36
-35 l35 -19 -28 -12 c-27 -12 -25 -12 25 -13 49 0 68 11 40 24 -7 3 -1 3 14 0
24 -5 28 -2 37 33 12 42 13 93 3 166 l-7 49 -30 -26 c-37 -32 -43 -26 -17 18
21 35 21 35 1 60 -24 30 -24 46 -1 46 16 1 15 2 -2 15 -15 11 -20 31 -24 90
-5 85 4 105 48 105 36 0 106 36 149 78 18 17 49 40 70 49 39 18 191 164 191
184 0 6 16 34 35 60 41 58 42 59 13 59 -21 0 -48 -36 -48 -63 0 -4 -17 -34
-39 -65 -74 -109 -190 -190 -223 -157 -12 13 27 74 50 80 14 3 35 13 46 22 20
14 18 14 -28 8 -33 -4 -51 -3 -56 5 -4 7 -10 -6 -13 -28 -8 -47 -54 -100 -112
-128 -39 -18 -39 -19 -12 -22 16 -2 39 5 56 17 16 12 36 21 45 21 53 0 -35
-71 -123 -99 -80 -25 -117 -27 -129 -5 -8 14 -16 12 -64 -15 -57 -33 -109 -39
-151 -20 -18 8 -37 6 -87 -10 -99 -33 -205 -29 -286 9 l-63 31 -51 -17 c-96
-31 -227 -1 -259 59 -7 13 -26 31 -42 41 -58 34 -104 126 -97 196 2 26 7 34
18 30 8 -2 58 -6 110 -8 83 -3 99 -7 128 -29 67 -51 77 -115 19 -126 -20 -3
-20 -4 -4 -11 42 -19 77 35 56 86 -13 32 -73 88 -94 88 -23 0 -45 30 -45 61 0
91 154 190 231 149 42 -23 63 -111 23 -96 -19 7 -64 -3 -64 -15 0 -4 19 -13
43 -19 23 -6 51 -15 62 -20 11 -5 36 -11 55 -14 19 -3 55 -9 80 -15 57 -12
144 -28 218 -41 31 -5 69 -15 84 -21 l27 -11 -36 -49 c-45 -64 -47 -64 -89
-38 -37 23 -91 22 -120 -2 -23 -19 -18 -96 6 -109 24 -13 24 -11 6 25 -37 70
46 115 104 57 l28 -29 35 31 c19 17 45 46 57 65 l23 34 80 -6 c52 -3 92 -1
116 8 22 7 45 9 58 4 21 -7 22 -6 16 21 -7 36 10 60 44 60 28 0 59 14 90 42
17 16 25 18 43 8 20 -11 21 -10 15 9 -4 14 -2 21 7 21 18 0 78 62 78 80 0 10
-3 11 -8 4 -17 -24 -82 -65 -100 -62 -11 2 -32 -11 -54 -35 -53 -55 -132 -50
-95 7 14 21 21 47 18 72 0 6 -16 19 -34 29 -30 16 -36 16 -58 3 -13 -9 -39
-18 -56 -21 -29 -6 -36 -2 -60 30 -16 21 -41 49 -57 63 -25 23 -27 29 -17 47
18 35 13 102 -10 134 -25 35 -60 54 -116 63 -54 8 -58 -10 -5 -20 101 -18 146
-88 107 -164 -14 -26 -21 -30 -60 -30 -39 0 -45 3 -51 25 -9 35 -28 32 -21 -4
5 -23 0 -34 -21 -53 -15 -13 -34 -35 -43 -48 -16 -24 -18 -24 -45 -9 -16 9
-44 39 -61 65 -22 33 -33 42 -32 29 1 -32 33 -78 70 -102 53 -35 58 -41 52
-63 -5 -17 -13 -20 -68 -20 -35 0 -86 -5 -114 -12 -48 -11 -51 -10 -70 13 -11
13 -20 30 -21 37 0 7 -6 22 -12 35 -7 12 -14 23 -14 25 -1 1 -34 5 -73 7 -67
5 -75 3 -109 -22 -76 -57 -102 -97 -102 -157 l0 -46 -58 0 c-72 0 -87 11 -110
81 l-18 56 27 67 c41 102 92 162 171 205 48 25 48 25 48 5 0 -8 -27 -42 -60
-74 -33 -32 -60 -66 -60 -75 0 -15 85 65 155 148 35 40 69 52 121 43 42 -8 74
-38 74 -68 0 -13 18 -49 40 -82 32 -47 40 -54 40 -35 0 13 -14 40 -30 59 -45
52 -40 104 14 168 11 12 29 22 40 23 19 0 19 1 -3 10 l-23 9 24 32 c39 51 76
66 175 72 48 2 109 8 136 11 32 5 52 3 62 -5 9 -7 18 -10 21 -8 3 3 -6 15 -20
26 -15 11 -26 23 -26 27 0 15 190 -1 207 -18 24 -24 2 -47 -27 -29 -27 17 -35
15 -19 -4 7 -9 24 -20 36 -25 23 -8 24 -12 21 -106 -3 -120 9 -203 29 -203 15
0 94 -59 126 -95 18 -20 18 -20 12 5 -4 14 -33 50 -65 80 -32 30 -62 66 -67
80 -4 14 -8 87 -8 163 l0 138 35 -3 c30 -3 35 -7 38 -30 4 -33 17 -37 25 -7 4
14 12 20 27 17 26 -4 50 -62 50 -122 0 -32 -3 -37 -17 -31 -67 28 -71 29 -87
16 -26 -22 -18 -56 24 -102 47 -52 53 -36 9 27 -24 35 -27 45 -15 50 34 13 90
-34 150 -126 21 -31 36 -47 36 -37 0 20 -24 69 -53 108 -13 19 -20 46 -22 90
-1 35 -6 77 -10 92 -7 28 -7 28 30 21 45 -8 157 -48 205 -73 30 -15 35 -24 38
-57 2 -23 -3 -47 -12 -59 l-15 -20 -15 20 c-15 19 -15 19 -16 1 0 -10 16 -37
36 -59 35 -38 36 -42 31 -95 -3 -31 -14 -67 -24 -81 -31 -44 -45 -78 -41 -97
4 -16 6 -15 16 8 6 14 20 29 31 33 11 3 18 11 15 18 -2 7 5 30 16 52 11 21 20
59 20 83 0 52 16 53 43 1 17 -31 20 -112 6 -157 -5 -15 61 -42 102 -42 40 0
89 20 142 56 50 36 62 40 72 24 19 -31 -127 -112 -220 -120 l-60 -6 39 -8 c71
-16 162 17 239 84 25 22 50 40 57 40 6 0 24 7 41 15 22 12 34 13 49 5 40 -21
81 11 61 48 -6 11 -6 24 0 35 12 21 -5 91 -33 129 -16 23 -27 28 -62 28 -30 0
-48 6 -61 20 -10 11 -24 20 -30 20 -7 0 -18 7 -25 15 -7 9 -18 14 -24 12 -6
-3 -21 5 -33 16 -32 29 -39 15 -10 -19 48 -57 57 -95 45 -189 -11 -88 -20
-105 -74 -142 -32 -23 -159 -52 -171 -39 -14 14 -21 190 -11 282 l10 92 -46
87 c-25 48 -46 93 -46 100 0 25 -41 90 -69 110 -90 64 -121 90 -121 100 0 31
-106 115 -146 115 -8 0 -31 11 -52 25 -64 42 -119 56 -217 54 -90 -1 -141 6
-245 35 -65 19 -80 19 -145 0z m140 -15 c9 -13 -64 -78 -88 -79 -9 0 -25 -4
-35 -9 -9 -5 -35 -17 -57 -28 -22 -11 -62 -23 -89 -27 -34 -4 -54 -13 -67 -30
-18 -23 -55 -32 -159 -41 -20 -2 -62 -8 -94 -14 -37 -7 -63 -7 -70 -2 -7 6
-17 6 -26 1 -23 -15 -50 -12 -50 6 0 22 103 122 134 130 14 3 26 9 26 13 0 4
19 6 43 6 74 -3 74 -3 42 -31 -16 -14 -23 -23 -15 -20 8 3 41 13 73 22 36 11
53 20 45 25 -18 11 19 49 49 49 12 0 23 4 23 8 0 5 27 4 60 -1 57 -9 79 -28
48 -40 -7 -3 2 -6 20 -6 41 -1 75 26 40 31 -13 2 -22 8 -20 13 7 27 153 48
167 24z m170 -52 c15 -21 29 -22 46 -1 31 38 234 -8 246 -56 4 -14 11 -18 27
-14 40 10 119 -35 144 -83 32 -60 -2 -68 -113 -27 -67 25 -115 63 -115 92 0 7
-8 12 -17 10 -10 -1 -24 1 -31 6 -22 13 -155 11 -189 -3 -29 -12 -37 -11 -85
13 -28 14 -62 26 -74 26 -32 0 -51 26 -25 35 12 3 21 11 21 17 0 19 150 5 165
-15z m-175 -57 c77 -18 157 -67 138 -86 -2 -1 -53 2 -113 7 -61 6 -123 8 -140
6 -70 -11 -79 39 -12 68 38 17 67 18 127 5z m352 -42 c34 -20 68 -51 68 -61 0
-9 -86 -5 -187 9 -54 8 -75 30 -48 50 24 18 137 19 167 2z m-552 -22 c0 -14
-29 -26 -67 -26 -25 0 -29 10 -11 28 17 17 78 16 78 -2z m486 -71 c346 -51
413 -63 429 -77 5 -4 19 -8 32 -8 13 0 23 -4 23 -10 0 -5 6 -10 13 -10 6 0 18
-15 25 -32 8 -18 17 -42 22 -53 28 -68 51 -114 60 -120 5 -3 10 -16 10 -27 0
-21 -1 -21 -28 5 -57 54 -231 121 -387 147 -38 7 -92 16 -120 22 -27 5 -181
12 -342 15 -356 7 -463 -1 -723 -57 -123 -26 -249 -89 -322 -161 -66 -65 -85
-56 -42 20 15 25 47 84 71 131 24 47 57 97 73 111 55 47 176 74 525 118 159
19 501 13 681 -14z m-503 -172 c4 -3 67 -7 140 -7 77 -1 134 -5 137 -11 5 -12
-105 -34 -172 -35 -26 0 -50 -4 -53 -10 -9 -15 -32 -12 -51 8 -17 16 -17 16
-12 -5 4 -15 -3 -33 -19 -55 -13 -18 -38 -59 -54 -90 -27 -53 -59 -77 -59 -44
0 10 -15 14 -52 14 -94 1 -220 -39 -265 -84 -54 -53 -65 -36 -32 52 41 109
152 193 256 194 56 0 49 -30 -10 -45 -39 -10 -34 -29 5 -21 51 10 75 39 61 75
-16 44 -3 54 84 61 43 4 81 8 84 8 3 1 9 -1 12 -5z m-215 -30 c-2 -10 -12 -19
-23 -21 -34 -5 -99 -25 -112 -35 -9 -7 -13 -4 -13 9 0 31 13 43 55 53 67 15
97 13 93 -6z m-180 -40 c2 -14 -13 -39 -42 -72 -61 -69 -86 -122 -99 -214 -3
-21 -18 -62 -32 -92 -15 -29 -32 -73 -39 -97 -13 -43 -13 -43 -61 -43 -59 0
-85 29 -93 103 -4 42 1 61 35 133 60 127 65 146 48 180 -15 27 -14 29 14 44
41 21 41 20 41 -25 0 -22 5 -59 12 -83 11 -42 10 -47 -20 -95 -17 -27 -37 -73
-46 -101 l-15 -51 30 0 c29 0 29 1 14 24 -14 21 -14 27 7 67 13 24 25 46 28
49 27 27 40 102 20 115 -5 3 -10 26 -10 50 0 64 28 92 115 115 81 22 89 21 93
-7z m-300 -119 c11 -19 -3 -76 -28 -114 -9 -14 -22 -38 -29 -55 -7 -16 -17
-38 -22 -47 -13 -25 -11 -102 3 -135 25 -58 47 -73 110 -73 53 0 58 -2 64 -24
3 -13 1 -34 -6 -45 -6 -12 -8 -26 -4 -33 6 -10 8 -25 13 -109 0 -14 16 -51 35
-82 19 -31 33 -57 30 -57 -20 0 -63 36 -106 90 -14 16 -22 21 -25 13 -19 -53
-123 60 -148 159 -4 17 -1 31 10 42 25 25 12 31 -67 27 -39 -1 -90 3 -115 11
-56 16 -138 78 -138 103 0 28 26 21 69 -18 46 -42 121 -63 170 -47 l34 11 -5
63 c-4 50 -1 72 16 111 26 58 28 83 6 65 -13 -11 -15 -7 -15 24 0 41 58 116
91 116 10 0 21 5 24 10 9 15 23 12 33 -6z m1806 -36 c15 -21 22 -98 11 -110
-3 -3 -22 2 -41 11 -33 15 -35 18 -29 51 13 70 33 86 59 48z m361 -39 c4 -11
4 -23 1 -27 -10 -9 -39 25 -32 37 11 17 24 13 31 -10z m113 -26 c2 -7 -3 -13
-12 -13 -9 0 -16 -4 -16 -8 0 -5 14 -9 30 -9 37 0 45 -7 32 -29 -7 -12 -6 -24
2 -36 13 -22 -4 -38 -41 -38 -28 0 -31 27 -5 46 15 12 14 13 -11 14 -24 0 -27
3 -22 20 5 16 2 20 -19 20 -30 0 -33 12 -10 35 19 18 65 17 72 -2z m-74 -56
c9 -14 7 -21 -7 -31 -17 -13 -16 -16 13 -44 37 -38 38 -56 2 -71 -34 -14 -78
-1 -85 26 -9 37 -6 117 5 130 15 19 58 13 72 -10z m-1102 -118 c15 -11 36 -33
48 -49 24 -33 23 -34 -66 -45 -40 -5 -52 -3 -57 8 -7 20 1 27 32 27 21 0 23 2
11 10 -28 18 -49 11 -64 -23 -12 -30 -19 -35 -62 -41 -56 -7 -67 3 -52 48 30
89 131 120 210 65z m-1672 6 c0 -16 -27 -32 -37 -21 -7 7 16 36 28 36 5 0 9
-7 9 -15z m2880 -5 c8 -16 8 -20 -3 -20 -18 0 -39 24 -30 33 11 12 22 8 33
-13z m-962 -101 c8 -43 -153 -188 -209 -189 -15 0 -46 7 -69 15 -38 13 -216
48 -402 78 -64 10 -85 22 -55 32 6 2 73 8 147 14 187 13 424 40 490 56 69 16
94 14 98 -6z m-25 -136 c-10 -30 -34 -52 -64 -58 -52 -12 -51 6 3 40 62 39 69
41 61 18z m-62 -390 c12 -30 28 -247 21 -275 -5 -21 -27 -24 -39 -5 -16 25
-40 264 -30 292 10 24 37 17 48 -12z m-853 -419 c2 -14 -7 -29 -24 -43 -48
-38 -84 -22 -84 37 l0 33 53 -3 c44 -3 52 -6 55 -24z m932 3 c0 -28 -34 -67
-58 -67 -23 0 -37 11 -51 38 -19 35 1 52 60 52 45 0 49 -2 49 -23z"/>
      <path d="M3228 2024 c-4 -3 -4 -13 -1 -22 4 -10 2 -13 -5 -8 -16 10 -15 -5 3
-45 13 -31 20 -26 16 10 -2 7 2 10 9 6 9 -5 10 -1 5 16 -11 35 -20 50 -27 43z"/>
      <path d="M2814 1856 c-9 -29 -7 -38 8 -58 9 -12 18 -30 18 -38 1 -26 26 -90
33 -83 16 15 7 59 -25 129 -6 12 -13 36 -16 53 l-7 32 -11 -35z"/>
      <path d="M816 1839 c-9 -16 -23 -29 -30 -29 -7 0 -21 -9 -31 -20 -10 -11 -28
-20 -39 -21 -18 0 -16 -2 7 -11 17 -6 27 -17 27 -29 0 -11 6 -19 13 -18 30 4
46 -2 50 -18 3 -11 5 -7 6 10 0 16 6 37 12 48 12 24 20 107 10 114 -4 2 -15
-9 -25 -26z m-18 -86 c-6 -7 -14 -13 -19 -13 -13 0 -11 24 3 38 16 16 31 -7
16 -25z"/>
      <path d="M1702 1367 l-22 -13 27 -24 c32 -29 86 -50 126 -50 58 0 117 -48 117
-95 0 -41 -24 -62 -83 -70 -54 -8 -81 6 -72 36 4 13 1 19 -8 19 -26 0 -27 -29
-3 -55 34 -37 118 -36 158 2 50 48 30 131 -40 167 -15 7 -53 17 -85 20 -63 8
-91 28 -82 57 7 22 -1 23 -33 6z"/>
    </g>
  </g>
</svg>
